<?xml version="1.0" standalone="no"?><!DOCTYPE svg PUBLIC "-//W3C//DTD SVG 1.1//EN" "http://www.w3.org/Graphics/SVG/1.1/DTD/svg11.dtd"><svg t="1542156739184" class="icon" style="" viewBox="0 0 1185 1024" version="1.1" xmlns="http://www.w3.org/2000/svg" p-id="2088" xmlns:xlink="http://www.w3.org/1999/xlink" width="74.0625" height="64"><defs><style type="text/css"></style></defs><path d="M1042.336 512q53.152 0 90.56 37.44t37.44 90.56l0 219.424q0 8-5.152 13.152t-13.152 5.152l-54.848 0 0 36.576q0 45.728-32 77.728t-77.728 32-77.728-32-32-77.728l0-36.576-585.152 0 0 36.576q0 45.728-32 77.728t-77.728 32-77.728-32-32-77.728l0-36.576-54.848 0q-8 0-13.152-5.152t-5.152-13.152l0-219.424q0-53.152 37.44-90.56t90.56-37.44l16 0 60-239.424q13.152-53.728 59.424-90.016t102.272-36.288l73.152 0 0-128q0-8 5.152-13.152t13.152-5.152l256 0q8 0 13.152 5.152t5.152 13.152l0 128 73.152 0q56 0 102.272 36.288t59.424 90.016l60 239.424 16 0zM182.912 786.272q37.728 0 64.576-26.848t26.848-64.576-26.848-64.576-64.576-26.848-64.576 26.848-26.848 64.576 26.848 64.576 64.576 26.848zM294.912 512l580.576 0-50.848-204q-1.152-4.576-8-10.016t-12-5.44l-438.848 0q-5.152 0-12 5.44t-8 10.016zM987.488 786.272q37.728 0 64.576-26.848t26.848-64.576-26.848-64.576-64.576-26.848-64.576 26.848-26.848 64.576 26.848 64.576 64.576 26.848z" p-id="2089"></path></svg>