<?xml version="1.0" standalone="no"?><!DOCTYPE svg PUBLIC "-//W3C//DTD SVG 1.1//EN" "http://www.w3.org/Graphics/SVG/1.1/DTD/svg11.dtd"><svg t="1542156730153" class="icon" style="" viewBox="0 0 1024 1024" version="1.1" xmlns="http://www.w3.org/2000/svg" p-id="1973" xmlns:xlink="http://www.w3.org/1999/xlink" width="64" height="64"><defs><style type="text/css"></style></defs><path d="M512 36.571429q-96.571429 0-184.571429 37.714285T175.714286 175.714286 74.285714 327.428571 36.571429 512t37.714285 184.571429 101.428572 151.714285T327.428571 949.714286t184.571429 37.714285 184.571429-37.714285 151.714285-101.428572T949.714286 696.571429t37.714285-184.571429-37.714285-184.571429-101.428572-151.714285T696.571429 74.285714 512 36.571429z m0-36.571429q104 0 198.857143 40.571429t163.428571 109.142857 109.142857 163.428571 40.571429 198.857143-40.571429 198.857143-109.142857 163.428571-163.428571 109.142857-198.857143 40.571429-198.857143-40.571429-163.428571-109.142857-109.142857-163.428571T0 512t40.571429-198.857143 109.142857-163.428571T313.142857 40.571429 512 0zM283.428571 475.428571q9.142857 0 9.142858 9.142858v274.285714q0 9.142857-9.142858 9.142857h-18.285714q-9.142857 0-9.142857-9.142857V484.571429q0-9.142857 9.142857-9.142858h18.285714z m228.571429 36.571429q30.285714 0 51.714286 21.428571t21.428571 51.714286q0 20-10 36.571429t-26.571428 26.285714v65.142857q0 8-5.142858 13.142857t-13.142857 5.142857h-36.571428q-8 0-13.142857-5.142857t-5.142858-13.142857v-65.142857q-16.571429-9.714286-26.571428-26.285714t-10-36.571429q0-30.285714 21.428571-51.714286T512 512z m0-438.857143q119.428571 0 220.285714 58.857143T892 291.714286 950.857143 512t-58.857143 220.285714-159.714286 159.714286T512 950.857143t-220.285714-58.857143T132 732.285714 73.142857 512t58.857143-220.285714T291.714286 132 512 73.142857zM310.857143 347.428571v54.857143q0 8 5.142857 13.142857t13.142857 5.142858h36.571429q8 0 13.142857-5.142858t5.142857-13.142857v-54.857143q0-53.142857 37.428571-90.571428T512 219.428571t90.571429 37.428572T640 347.428571v54.857143q0 8 5.142857 13.142857t13.142857 5.142858h36.571429q8 0 13.142857-5.142858t5.142857-13.142857v-54.857143q0-83.428571-58.857143-142.285714T512 146.285714 369.714286 205.142857 310.857143 347.428571z m493.714286 420.571429V475.428571q0-14.857143-10.857143-25.714285t-25.714286-10.857143H256q-14.857143 0-25.714286 10.857143t-10.857143 25.714285v292.571429q0 14.857143 10.857143 25.714286t25.714286 10.857143h512q14.857143 0 25.714286-10.857143t10.857143-25.714286z" p-id="1974"></path></svg>