<?xml version="1.0" standalone="no"?><!DOCTYPE svg PUBLIC "-//W3C//DTD SVG 1.1//EN" "http://www.w3.org/Graphics/SVG/1.1/DTD/svg11.dtd"><svg t="1542159211188" class="icon" style="" viewBox="0 0 1024 1024" version="1.1" xmlns="http://www.w3.org/2000/svg" p-id="1829" xmlns:xlink="http://www.w3.org/1999/xlink" width="64" height="64"><defs><style type="text/css"></style></defs><path d="M920.16512 339.544253c-22.305005-52.754504-54.236252-100.125395-94.90551-140.7967-40.670282-40.672328-88.041172-72.604598-140.795677-94.910627-54.623062-23.096021-112.648616-34.806737-172.463933-34.806737S394.159128 80.741929 339.536067 103.83795c-52.754504 22.306029-100.125395 54.238298-140.795677 94.910627-40.670282 40.671305-72.600505 88.042195-94.90551 140.7967-23.093974 54.621015-34.803667 112.6435-34.803667 172.454724 0 59.812247 11.709693 117.833709 34.803667 172.455747 22.305005 52.754504 54.235229 100.125395 94.90551 140.7967 40.671305 40.671305 88.041172 72.604598 140.795677 94.910627 54.623062 23.094998 112.648616 34.806737 172.463933 34.806737s117.840872-11.710716 172.463933-34.806737c52.754504-22.306029 100.125395-54.239322 140.795677-94.910627 40.669258-40.671305 72.600505-88.042195 94.90551-140.7967 23.092951-54.622038 34.803667-112.6435 34.803667-172.455747C954.968787 452.187753 943.258071 394.166291 920.16512 339.544253zM512 924.269601c-227.326449 0-412.269601-184.943153-412.269601-412.269601 0-227.325425 184.943153-412.269601 412.269601-412.269601 227.325425 0 412.269601 184.943153 412.269601 412.269601C924.269601 739.326449 739.325425 924.269601 512 924.269601z" p-id="1830"></path><path d="M615.628172 555.910069c-1.454118-2.869351-2.869351-5.247514-4.284583-7.646144 46.26879-22.898523 75.397201-72.52785 75.397201-131.237997 0-64.901149-33.414017-117.872594-87.34737-137.921209-18.593474-7.154957-40.567951-11.458983-90.689489-11.458983L368.404558 267.645736c-8.609075 0-15.291265 6.683213-15.291265 15.271822L353.113293 741.081419c0 8.589632 6.683213 15.271822 15.291265 15.271822l63.957661 0c8.569166 0 15.252379-6.683213 15.252379-15.271822L447.614597 574.051241l73.981968 0 92.576465 174.185134c2.397606 5.247514 7.665587 8.117888 13.365402 8.117888l72.566736 0c5.228071 0 10.496052-2.869351 12.893658-7.646144 2.830465-4.284583 2.830465-10.004865 0.471744-14.780635L615.628172 555.910069zM520.668427 487.666802l-77.324086 0L443.344341 353.559455l58.729589 0c32.902364 0 46.26879 3.341095 55.82033 8.589632 19.105127 10.496052 28.65769 30.052456 28.65769 57.747215C586.552973 462.842417 562.691519 487.666802 520.668427 487.666802z" p-id="1831"></path></svg>