<?xml version="1.0" standalone="no"?><!DOCTYPE svg PUBLIC "-//W3C//DTD SVG 1.1//EN" "http://www.w3.org/Graphics/SVG/1.1/DTD/svg11.dtd"><svg t="1542159179166" class="icon" style="" viewBox="0 0 1024 1024" version="1.1" xmlns="http://www.w3.org/2000/svg" p-id="1598" xmlns:xlink="http://www.w3.org/1999/xlink" width="64" height="64"><defs><style type="text/css"></style></defs><path d="M914.561 690.916c0 34.479-36.342 29.819-59.639 29.819 0 65.695-53.582 119.277-119.277 119.277s-119.277-53.582-119.277-119.277L437.452 720.735c0 65.695-53.582 119.277-119.277 119.277-65.696 0-119.277-53.582-119.277-119.277l-29.819 0c-23.297 0-59.639 4.659-59.639-29.819 0-16.308 13.512-29.819 29.819-29.819L139.259 512c0-33.081-4.659-69.889 20.967-95.515l92.253-92.254c11.648-11.648 34.013-20.967 50.786-20.967l74.549 0 0-89.458c0-16.308 13.512-29.819 29.819-29.819l477.108 0c16.308 0 29.819 13.512 29.819 29.819L914.56 690.916zM377.813 482.181 377.813 362.903l-73.617 0c-1.863 0-8.853 2.796-10.25 4.193l-90.855 90.856c-1.398 1.397-4.193 8.387-4.193 10.25l0 13.978L377.813 482.18zM318.175 661.097c-32.615 0-59.639 27.023-59.639 59.639s27.023 59.639 59.639 59.639c32.614 0 59.639-27.023 59.639-59.639S350.789 661.097 318.175 661.097zM735.645 661.097c-32.615 0-59.639 27.023-59.639 59.639s27.023 59.639 59.639 59.639 59.639-27.023 59.639-59.639S768.26 661.097 735.645 661.097z" p-id="1599"></path></svg>